<?xml version="1.0" encoding="UTF-8"?><svg id="Layer_1" xmlns="http://www.w3.org/2000/svg" viewBox="0 0 1975.277 1589.579"><path d="M166.849,539.832c44.663,0,86.608-.238,128.542.304,5.198.067,10.597,3.836,15.476,6.634,151.017,86.611,302.002,173.278,452.914,260.071,12.933,7.438,26.133,11.584,40.954,7.392,17.375-4.914,30.763-20.113,32.412-37.974,1.948-21.092-6.989-37.138-25.058-47.789-40.682-23.981-81.682-47.423-122.274-71.554-117.29-69.728-235.54-137.928-351.279-210.147-83.553-52.135-153.043-120.109-201.431-207.363C96.294,165.814,76.059,86.913,76.618,0c8.624,4.802,15.605,8.443,22.349,12.479,258.627,154.797,517.413,309.33,775.705,464.685,59.511,35.794,114.971,77.371,158.238,132.739,42.909,54.908,68.781,116.554,68.401,187.28-.584,108.452-69.866,199.498-168.773,223.601-56.555,13.782-112.459,7.315-166.897-8.21-168.617-48.086-319.77-129.015-448.877-248.433-62.669-57.966-111.985-126.179-143.478-206.296-2.056-5.229-3.792-10.584-6.436-18.014Z" fill="#a855f7" stroke-width="0"/><path d="M1786.491,490.069c-31.551,14.355-62.406,26.96-91.958,42.105-90.775,46.52-159.629,116.992-214.413,201.737-61.364,94.925-120.64,191.211-182.693,285.677-51.546,78.472-110.344,151.095-186.05,208.292-67.874,51.28-142.627,86.418-227.986,95.868-18.918,2.094-38.161,2.96-57.171,2.225-128.5-4.964-245.761,30.914-355.454,95.752-74.29,43.912-148.981,87.131-230.172,117.615-73.229,27.494-148.408,46.043-226.791,50.152-3.5.184-7.018.024-13.803.024,35.038-20.072,67.321-38.031,99.087-56.863,103.214-61.19,200.038-131.669,294.087-205.868,93.665-73.896,185.843-149.676,279.039-224.172,4.526-3.618,12.847-4.696,18.937-3.799,46.154,6.794,91.952,17.964,138.31,21.072,171.427,11.495,318.368-115.197,336.246-285.934,9.877-94.326-13.201-179.74-65.514-257.768-6.528-9.737-6.085-15.859.089-24.942,33.771-49.687,64.533-101.622,100.914-149.285,55.814-73.124,130.513-115.206,223.489-123.725,109.766-10.058,227.381,63.133,264.819,167,4.35,12.069,10.745,18.618,23.061,22.009,24.561,6.763,48.728,14.956,73.927,22.83ZM1483.863,397.207c-35.761-.181-63.42,27.385-63.478,63.265-.056,34.665,27.415,62.125,62.816,62.791,34.195.643,62.878-28.821,62.764-64.473-.109-34.101-27.647-61.409-62.102-61.584Z" fill="#a855f7" stroke-width="0"/><path d="M1970.152,1570.433c-9.685,10.439-21.494,14.071-35.812,14.044-161.591-.3-323.183-.332-484.774.078-17.981.046-31.575-5.064-40.086-21.315-.407-6.639-1.163-13.277-1.168-19.915-.11-132.838-.161-265.676-.123-398.514.003-11.406.711-22.811,1.092-34.217,2.139-3.722,4.278-7.445,6.417-11.167,10.879-3.779,21.743-10.801,32.639-10.849,163.211-.723,326.427-.722,489.638-.064,9.948.04,19.867,7.004,29.799,10.746,2.486,9.996,7.101,19.984,7.136,29.988.488,137.805.444,275.613.138,413.42-.021,9.259-3.19,18.511-4.895,27.766ZM1772.403,1299.669c-9.226,0-14.405-.002-19.582,0-60.623.02-121.246.174-181.868-.029-15.738-.053-28.178,5.251-35.344,19.601-12.024,24.08,4.91,50.044,33.178,50.221,52.982.332,105.969-.017,158.954-.076,13.58-.015,27.161-.002,44.992-.002-19.423,20.355-35.835,36.868-51.44,54.111-14.4,15.913-14.314,35.732-.843,48.715,14.102,13.592,35.074,13.206,50.03-1.742,35.449-35.427,70.734-71.024,105.771-106.858,17.307-17.701,16.819-39.339-.603-57.175-34.684-35.511-69.428-70.963-104.197-106.391-15.236-15.525-36.709-16.418-51.008-2.264-13.725,13.585-12.948,34.206,1.921,49.738,15.771,16.474,31.577,32.914,50.039,52.152Z" fill="#a855f7" stroke-width="0"/><path d="M1640.946,1053.224c-38.638.056-72.691-11.91-101.123-38.589-1.385-1.3-2.678-2.709-3.923-4.146-13.161-15.184-15.793-33.25-6.453-44.14,9.273-10.812,27.166-10.457,43.95,2.643,29.1,22.713,50.492,51.877,67.33,84.518l.218-.286Z" fill="#a855f7" stroke-width="0"/><path d="M1757.714,1052.556c16.919-30.111,37.069-57.739,63.706-80.012,6.052-5.061,13.612-10.101,21.067-11.221,8.091-1.215,19.522-.596,24.61,4.301,5.165,4.97,8.155,17.776,5.361,24.237-5.257,12.157-13.563,24.44-23.798,32.717-25.942,20.98-56.736,30.583-90.253,30.831l-.693-.854Z" fill="#a855f7" stroke-width="0"/><line x1="1700.546" y1="490.069" x2="1700.546" y2="1088.069" fill="none" stroke="#a855f7" stroke-miterlimit="10" stroke-width="21"/></svg>